<svg width="39" height="60" viewBox="0 0 39 60" fill="none" xmlns="http://www.w3.org/2000/svg">
<path d="M17.4554 0.07646C34.7787 -1.3792 45.539 18.2685 34.5535 31.8406C24.6867 44.029 5.03711 39.9522 0.743411 24.9318C-2.54801 13.4155 5.46029 1.08327 17.4554 0.07646ZM19.1902 3.54326C6.25964 3.77885 -1.09038 18.7992 6.78676 29.1649C14.3892 39.1685 30.0792 36.7581 34.4001 24.9913C38.2409 14.5339 30.2821 3.3424 19.1878 3.54326H19.1902Z" fill="#F45314"/>
<path d="M5.5101 40.0287C6.46001 39.8906 8.04565 41.1391 8.97576 41.5988C15.2268 44.6812 22.7444 44.847 29.1216 42.0334C29.985 41.6516 32.4661 40.0664 33.0721 40.0086C34.8458 39.8403 35.7338 42.1741 34.2496 43.3498C33.4259 44.0029 31.7932 44.8118 30.8136 45.2615C29.1018 46.0453 28.0851 46.0151 26.7469 47.5375C25.0524 49.4693 23.7042 52.5215 22.9423 54.9784C22.2447 57.2267 22.2843 60.3242 19.0784 59.9725C16.6962 59.7112 16.6418 56.7871 16.0827 54.9784C15.3381 52.5743 14.0197 49.5823 12.4018 47.6631C11.0067 46.0076 9.87372 46.0202 8.0506 45.1736C7.18727 44.7741 4.58494 43.4603 4.19162 42.6866C3.64493 41.6114 4.3252 40.2021 5.50763 40.0287H5.5101ZM22.2373 47.5375H16.7976C17.7525 49.5874 18.9052 51.572 19.395 53.8178L22.2373 47.5375Z" fill="#F45314"/>
<path d="M28.0517 18.0448C30.0364 17.6336 30.6951 20.1716 29.1294 20.8389C26.9589 21.7624 26.1879 18.4301 28.0517 18.0448Z" fill="#F45314"/>
<path d="M24.1969 22.0258C26.3955 21.6879 26.6058 24.7761 24.7049 24.9879C22.7034 25.2103 22.3749 22.306 24.1969 22.0258Z" fill="#F45314"/>
<path d="M20.36 26.0158C22.2382 25.7602 22.63 28.6892 20.8693 28.9725C18.7321 29.3176 18.2489 26.3055 20.36 26.0158Z" fill="#F45314"/>
<path d="M29.2634 23.0201C31.3295 22.7276 31.6175 25.715 29.7739 25.9798C27.7362 26.2723 27.3063 23.2956 29.2634 23.0201Z" fill="#F45314"/>
<path d="M26.5559 27.4476C27.9108 28.8008 25.8616 30.8983 24.4707 29.5832C23.0523 28.2448 25.1608 26.0521 26.5559 27.4476Z" fill="#F45314"/>
</svg>
