<svg width="53" height="53" viewBox="0 0 53 53" fill="none" xmlns="http://www.w3.org/2000/svg">
<path d="M10.8467 41.8381C4.45623 35.2944 2.96279 24.2422 7.2967 16.1911C12.0473 7.36384 21.6837 3.01338 31.4891 5.42103C32.7235 5.72339 34.8003 6.76814 35.787 6.87645C38.4157 7.16527 39.4316 3.73319 37.2691 2.45378C34.3251 0.711786 28.5495 -0.132132 25.1639 0.0167944C0.455699 1.09313 -9.33839 33.4599 10.885 47.9509C28.2342 60.3795 51.9851 48.4879 52.9356 27.2726C53.019 25.402 53.3704 22.3445 50.852 22.1301C47.2074 21.821 48.221 25.7337 48.0859 28.0556C47.0182 46.5654 23.702 55.0001 10.8467 41.8381ZM49.8609 4.7847C49.3811 4.86594 48.8518 5.23825 48.4801 5.54513L26.351 27.7239L26.0672 27.6675L20.7219 22.2994C18.5797 20.3611 15.5861 22.8161 17.021 25.3298L24.8936 33.2387C25.7 33.7758 26.6912 33.7938 27.5156 33.2838L52.1427 8.65003C53.5235 6.94414 51.967 4.43044 49.8609 4.7847Z" fill="white"/>
<path d="M10.8475 41.838C23.7026 55.0001 47.0183 46.5653 48.086 28.0554C48.2211 25.7312 47.2075 21.8207 50.8521 22.1299C53.3704 22.3442 53.019 25.4018 52.9356 27.2724C51.9851 48.4879 28.2346 60.3795 10.8858 47.9508C-9.33948 33.4619 0.456682 1.09267 25.1645 0.0163262C28.55 -0.130345 34.3254 0.71358 37.2694 2.45333C39.4341 3.73276 38.416 7.16487 35.7873 6.87604C34.8007 6.76773 32.7261 5.72523 31.4895 5.42061C21.6843 3.01294 12.0481 7.36344 7.29755 16.1908C2.96373 24.2419 4.45714 35.2942 10.8475 41.838Z" fill="#F45314"/>
<path d="M50.2155 4.96327C52.3054 4.61579 53.8522 7.08135 52.4797 8.75456L28.0421 32.9165C27.224 33.4145 26.2405 33.399 25.4403 32.8723L17.6282 25.1149C16.2043 22.6515 19.1749 20.2413 21.3006 22.1425L26.6048 27.4078L26.8865 27.4631L48.8453 5.70913C49.2141 5.40813 49.7394 5.04295 50.2155 4.96327Z" fill="#F45314"/>
</svg>
