<svg width="57" height="56" viewBox="0 0 57 56" fill="none" xmlns="http://www.w3.org/2000/svg">
<path d="M39.643 34.7767L46.3067 12.5534C46.595 11.8457 47.0952 11.3739 47.7592 11.0288C48.9058 7.98419 49.4104 4.21223 50.6225 1.25058C51.3761 -0.588446 53.2937 -0.0183933 54.744 0.573501C55.6569 0.946984 56.1309 1.61095 56.0457 2.63312L53.2216 12.2694C53.3287 13.1343 54.0276 13.8507 53.7131 14.8292C50.8257 23.8103 48.9517 33.4335 45.9529 42.3425C44.6031 46.3569 42.288 47.7416 38.6558 49.4605C30.0657 53.5295 18.2606 56.6135 8.71598 55.884C4.19487 55.5389 0.446935 51.7145 0.136791 47.2087C-0.0423061 44.6139 -0.0488585 40.5078 0.136791 37.9175C0.536484 32.3676 5.47476 28.7333 10.8826 29.3623C18.5489 30.2556 27.1979 32.2562 34.7593 33.9882C35.6221 34.1848 38.6536 35.124 39.2608 34.9995C39.3787 34.9755 39.5273 34.8422 39.6386 34.7767H39.643ZM51.5792 11.4373L54.1805 2.42344L52.4004 1.825L49.7249 10.8388L51.5792 11.4373ZM39.2411 47.0383C41.4864 46.2433 43.1988 44.3802 44.0462 42.1808L51.885 14.1412C51.8981 13.3331 49.4475 12.6101 48.9058 12.6298C48.5061 12.6451 48.1829 12.9378 48.03 13.2916C45.7017 20.1737 44.1357 27.4927 41.7813 34.3442C40.8137 37.1618 39.5862 37.2098 36.8386 36.4454L39.2433 47.0361L39.2411 47.0383ZM34.8576 35.9124C28.9955 34.6151 23.118 33.3658 17.2013 32.3283C15.0892 31.9592 12.7762 31.4568 10.6686 31.2166C9.80804 31.1183 9.08728 31.1161 8.22674 31.2035L12.4858 54.0275C15.5675 53.8331 18.6384 53.5557 21.6787 53.0097C27.1106 52.0334 32.4049 50.3014 37.3868 47.9666L34.8576 35.9124ZM8.71598 54.0275C9.32535 54.0864 10.009 53.9838 10.6271 54.0275L6.42048 31.8565C3.88473 32.8023 2.19204 35.4625 1.99547 38.1337C1.81637 40.569 1.80982 44.662 2.00202 47.0907C2.27941 50.605 5.16899 53.6846 8.71598 54.0275Z" fill="#F45314"/>
<path d="M34.0802 44.7689C35.2312 44.6947 35.5217 46.4179 34.3008 46.632L14.8163 51.2907C13.6303 51.3999 13.2874 49.8492 14.4232 49.4691L34.0802 44.7711V44.7689Z" fill="#F45314"/>
<path d="M32.6626 39.7521C33.1693 39.6975 33.4598 39.6363 33.7786 40.1037C34.1893 40.7065 33.8223 41.3923 33.1474 41.5474L13.5494 46.145C12.4814 45.8894 12.5709 44.4894 13.5974 44.2754L32.6626 39.7521Z" fill="#F45314"/>
<path d="M12.0817 40.7786C11.6995 40.4291 11.73 39.6538 12.1603 39.3415L26.1102 35.9211C27.3748 36.026 27.4884 37.5636 26.2457 37.8104L12.5687 41.0101C12.418 40.9402 12.204 40.8878 12.0839 40.7786H12.0817Z" fill="#F45314"/>
<path d="M13.2262 33.6344C14.576 33.5143 14.8883 34.9885 13.711 35.4341C12.8876 35.7464 10.7756 36.3558 10.8367 34.864C10.8739 33.9969 12.5207 33.6955 13.224 33.6344H13.2262Z" fill="#F45314"/>
</svg>
