<svg width="779" height="359" viewBox="0 0 779 359" fill="none" xmlns="http://www.w3.org/2000/svg">
<path opacity="0.1" d="M1470.01 569.982C1437.6 574.697 1405.77 586.181 1373.64 592.89C1339.09 600.144 1304.2 605.856 1269.17 610.328C1198.88 619.274 1128.02 623.082 1057.19 623.717C1028.84 623.959 1000.49 623.717 972.169 623.022C907.239 621.48 841.946 617.703 778.256 604.163C714.264 590.563 655.717 564.542 599.229 531.993C585.371 524.014 571.786 515.552 558.715 506.365C610.333 487.869 670.301 452.962 670.301 381.487C670.301 352.081 663.342 295.566 633.872 260.75C635.415 259.964 706.7 242.949 741.585 229.017C767.303 218.53 793.233 208.163 817.71 195.017C837.77 184.258 863.67 169.993 870.78 146.722C877.588 124.478 868.148 96.5835 859.404 75.821C849.449 52.2478 835.32 31.1527 823.701 8.45597C788.846 -59.6646 760.616 -73.3249 654.053 -79.188C513.573 -86.9249 371.246 -80.0645 235.335 -41.3198C188.528 -27.9616 137.364 -13.5457 103.144 23.023C85.2626 42.1234 73.1298 67.2983 74.2493 93.8333C76.4278 144.969 125.201 184.348 175.578 177.82C183.172 176.823 190.646 174.859 197.786 172.048C232.521 158.418 212.128 155.577 199.39 141.01C184.262 123.723 191.16 104.109 213.489 91.2342C275.848 55.2397 383.924 45.5082 383.924 45.5082C328.918 92.7151 256.484 157.813 202.234 210.43C131.736 278.581 0 398.562 0 444.228C0 471.307 13.9482 493.762 28.6831 516.972C46.5041 544.837 58.9093 548.706 59.6657 548.706C69.7411 548.706 94.5514 496.845 136.366 441.115C165.049 524.709 268.102 542.51 349.462 542.51C387.071 542.51 424.044 538.521 460.624 531.691C463.982 531.056 483.861 551.003 487.129 553.541C498.081 562.185 509.155 570.677 520.32 579.018C542.165 595.308 564.434 610.963 587.308 625.772C632.904 655.269 680.891 681.32 731.359 701.508C859.313 752.644 998.402 764.491 1134.83 770.626C1151.68 771.382 1168.53 772.047 1185.39 772.712C1222.63 774.192 1259.88 775.16 1297.15 774.978C1332.64 774.827 1371.16 775.945 1405.87 768.057C1438.12 760.744 1448.16 720.367 1458.42 693.137C1468.47 666.39 1476.73 639.039 1486.59 612.263C1500.08 575.633 1506.14 564.754 1469.98 570.012L1470.01 569.982ZM406.828 160.926C459.535 109.851 496.72 78.1178 496.72 70.381C496.72 62.6441 463.014 44.2993 442.863 34.9909C520.108 23.5972 598.109 17.0693 676.231 19.759C704.128 20.7261 732.508 22.9626 758.468 33.2683C775.351 39.9776 798.588 56.9322 788.785 77.6041C784.126 87.4262 774.171 94.5284 765.336 100.271C734.596 120.278 697.713 131.702 662.828 142.037C575.235 167.968 483.225 185.316 392.093 192.206C385.648 192.69 379.204 193.113 372.759 193.415L406.858 160.896L406.828 160.926ZM302.988 430.84C282.898 430.87 262.898 429.872 243.171 427.515C225.531 425.4 181.176 421.531 186.531 394.029C187.166 390.735 188.74 387.562 191.221 385.265C197.877 379.13 209.889 379.311 218.33 379.19C229.223 379.069 240.085 380.278 250.886 381.608C269.887 383.965 288.767 387.592 307.345 392.095C323.895 396.114 340.294 400.859 356.3 406.753C364.53 409.775 372.759 413.009 380.596 416.968C383.258 418.297 385.86 419.778 388.341 421.38C389.582 422.196 394.12 424.493 393.969 424.856C393.818 425.249 392.033 425.4 391.67 425.46C389.945 425.672 382.683 426.246 380.777 426.427C376.299 426.88 371.791 427.273 367.313 427.666C358.176 428.513 349.008 429.208 339.81 429.721C330.612 430.235 321.414 430.598 312.186 430.749C309.1 430.809 306.014 430.84 302.927 430.84H302.988ZM509.095 402.431C496.901 405.876 484.436 408.989 471.789 411.8C430.731 362.084 331.52 318.927 249.283 312.792C276.362 285.502 306.286 257.969 326.255 238.355C323.925 253.073 323.169 271.63 323.169 297.167C323.169 302.577 325.499 304.118 330.158 304.118C332.488 304.118 334.818 304.118 337.904 303.333C343.32 302.547 416.177 286.318 506.826 286.318C564.161 286.318 614.538 295.596 614.538 328.115C614.538 370.698 548.67 391.581 509.155 402.431H509.095Z" fill="#FFFAD2"/>
</svg>
