<svg width="209" height="79" viewBox="0 0 209 79" fill="none" xmlns="http://www.w3.org/2000/svg">
<path d="M147.276 77.1505C146.272 77.1505 145.342 76.9563 144.485 76.5679C143.628 76.1795 142.881 75.6413 142.246 74.956C141.611 74.2708 141.117 73.4773 140.762 72.5757C140.407 71.674 140.229 70.7141 140.229 69.6987C140.229 68.6001 140.426 67.5986 140.817 66.697C141.211 65.7953 141.741 65.0157 142.415 64.3555C143.087 63.698 143.85 63.1903 144.699 62.8352C145.548 62.48 146.427 62.3025 147.337 62.3025C148.333 62.3025 149.318 62.5355 150.286 62.9988C151.254 63.4621 152.128 64.214 152.908 65.2516L150.164 66.7275C149.748 66.2558 149.293 65.9091 148.796 65.6871C148.3 65.4652 147.8 65.3542 147.295 65.3542C146.79 65.3542 146.288 65.4596 145.811 65.6705C145.334 65.8813 144.907 66.1837 144.532 66.5721C144.158 66.9605 143.858 67.4266 143.636 67.9648C143.414 68.503 143.303 69.1023 143.303 69.757C143.303 70.359 143.409 70.9222 143.617 71.4465C143.825 71.9737 144.113 72.4314 144.482 72.8254C144.851 73.2193 145.278 73.5245 145.761 73.7464C146.247 73.9684 146.765 74.0793 147.318 74.0793C147.631 74.0793 147.945 74.0377 148.255 73.9517C148.566 73.8657 148.868 73.7381 149.162 73.5689C149.457 73.3996 149.731 73.1805 149.992 72.9141C150.25 72.6478 150.486 72.3343 150.699 71.9709H148.774V69.3076H154.325C154.381 70.3784 154.234 71.3883 153.89 72.3343C153.546 73.2803 153.049 74.1154 152.4 74.8395C151.751 75.5636 150.991 76.1295 150.117 76.5401C149.243 76.9507 148.297 77.1533 147.279 77.1533L147.276 77.1505Z" fill="#FFFAD2"/>
<path d="M162.626 77.1504C161.655 77.1504 160.745 76.9562 159.891 76.5706C159.036 76.1849 158.287 75.6495 157.638 74.967C156.989 74.2846 156.481 73.4939 156.112 72.595C155.743 71.6961 155.56 70.7362 155.56 69.7125C155.56 68.6888 155.743 67.7261 156.112 66.83C156.481 65.9312 156.989 65.1433 157.638 64.458C158.287 63.7756 159.036 63.2401 159.891 62.8545C160.745 62.4689 161.655 62.2747 162.626 62.2747C163.597 62.2747 164.518 62.4689 165.37 62.8545C166.224 63.2401 166.973 63.7756 167.623 64.458C168.272 65.1405 168.78 65.9312 169.143 66.83C169.509 67.7289 169.69 68.6888 169.69 69.7125C169.69 70.7362 169.506 71.6989 169.143 72.595C168.777 73.4939 168.272 74.2818 167.623 74.967C166.973 75.6523 166.224 76.1849 165.37 76.5706C164.515 76.9562 163.6 77.1504 162.626 77.1504ZM162.626 74.0765C163.173 74.0765 163.686 73.9627 164.169 73.7325C164.651 73.505 165.076 73.1887 165.445 72.7892C165.814 72.3897 166.102 71.9264 166.31 71.4021C166.518 70.8749 166.624 70.3118 166.624 69.7125C166.624 69.1133 166.518 68.5473 166.31 68.023C166.102 67.4959 165.814 67.0353 165.445 66.6358C165.076 66.2363 164.651 65.9228 164.169 65.6926C163.686 65.4651 163.173 65.3486 162.626 65.3486C162.08 65.3486 161.566 65.4623 161.084 65.6926C160.601 65.9201 160.176 66.2363 159.808 66.6358C159.439 67.0353 159.15 67.4986 158.942 68.023C158.734 68.5473 158.628 69.1133 158.628 69.7125C158.628 70.3118 158.734 70.8777 158.942 71.4021C159.15 71.9292 159.439 72.3897 159.808 72.7892C160.176 73.1887 160.601 73.5022 161.084 73.7325C161.564 73.96 162.08 74.0765 162.626 74.0765Z" fill="#FFFAD2"/>
<path d="M171.229 76.8841V62.5466H174.303V73.813H179.935V76.8869H171.229V76.8841Z" fill="#FFFAD2"/>
<path d="M181.982 76.8841V62.5466H190.502V65.6178H185.053V67.6652H189.52V70.7363H185.053V76.8814H181.982V76.8841Z" fill="#FFFAD2"/>
<path d="M134.601 59.8382C131.634 60.2709 128.72 61.3249 125.777 61.9407C122.614 62.6064 119.419 63.1307 116.211 63.5412C109.775 64.3622 103.287 64.7117 96.8016 64.7699C94.2057 64.7921 91.6098 64.7699 89.0167 64.7061C83.0713 64.5647 77.0927 64.218 71.261 62.9753C65.4015 61.7271 60.0407 59.3389 54.8683 56.3516C53.5995 55.6193 52.3556 54.8427 51.1587 53.9995C55.8851 52.3019 61.3761 49.0983 61.3761 42.5383C61.3761 39.8395 60.7389 34.6526 58.0405 31.4572C58.1818 31.3851 64.7089 29.8235 67.9032 28.5448C70.2581 27.5823 72.6323 26.6309 74.8736 25.4243C76.7104 24.4369 79.0819 23.1276 79.7329 20.9919C80.3563 18.9504 79.4919 16.3902 78.6913 14.4846C77.7798 12.3211 76.486 10.385 75.4222 8.30195C72.2306 2.04992 69.6458 0.796188 59.8884 0.25808C47.0253 -0.452 33.9932 0.177641 21.5484 3.73359C17.2625 4.95959 12.5777 6.28266 9.44439 9.6389C7.80707 11.3919 6.69613 13.7024 6.79863 16.1378C6.9981 20.831 11.464 24.4452 16.0768 23.846C16.7722 23.7545 17.4565 23.5742 18.1103 23.3163C21.2907 22.0653 19.4235 21.8046 18.2571 20.4676C16.8719 18.881 17.5036 17.0809 19.5481 15.8993C25.258 12.5957 35.154 11.7026 35.154 11.7026C30.1173 16.0352 23.4849 22.0098 18.5175 26.8389C12.0624 33.0937 0 44.1055 0 48.2966C0 50.7819 1.27717 52.8428 2.62637 54.9731C4.25815 57.5305 5.39402 57.8855 5.46329 57.8855C6.38584 57.8855 8.65759 53.1257 12.4863 48.0109C15.1127 55.6831 24.5488 57.3169 31.9985 57.3169C35.4421 57.3169 38.8276 56.9507 42.177 56.3239C42.4845 56.2656 44.3047 58.0963 44.6039 58.3293C45.6068 59.1226 46.6208 59.902 47.6431 60.6676C49.6433 62.1626 51.6824 63.5994 53.7768 64.9585C57.9518 67.6657 62.3457 70.0567 66.9668 71.9096C78.683 76.6028 91.4186 77.6901 103.91 78.2531C105.454 78.3225 106.997 78.3835 108.54 78.4445C111.95 78.5804 115.361 78.6692 118.774 78.6525C122.024 78.6387 125.55 78.7413 128.728 78.0174C131.681 77.3461 132.601 73.6404 133.54 71.1412C134.46 68.6865 135.216 66.1762 136.119 63.7187C137.355 60.3569 137.909 59.3584 134.599 59.841L134.601 59.8382ZM37.2512 22.2955C42.0773 17.6079 45.4821 14.6954 45.4821 13.9854C45.4821 13.2753 42.3959 11.5916 40.5508 10.7373C47.6237 9.6916 54.7658 9.09247 61.9191 9.33934C64.4734 9.4281 67.0721 9.63335 69.4491 10.5792C70.995 11.195 73.1227 12.751 72.2251 14.6483C71.7984 15.5498 70.887 16.2016 70.078 16.7286C67.2632 18.5648 63.8861 19.6133 60.6918 20.5619C52.6714 22.9418 44.2465 24.5339 35.902 25.1663C35.3119 25.2107 34.7218 25.2496 34.1317 25.2773L37.254 22.2927L37.2512 22.2955ZM27.7431 47.0679C25.9035 47.0706 24.0723 46.9791 22.2659 46.7628C20.6508 46.5686 16.5893 46.2136 17.0797 43.6894C17.1379 43.3871 17.2819 43.0959 17.5091 42.8851C18.1186 42.322 19.2185 42.3386 19.9914 42.3275C20.9888 42.3164 21.9834 42.4274 22.9724 42.5494C24.7122 42.7658 26.441 43.0986 28.142 43.5119C29.6574 43.8808 31.159 44.3163 32.6246 44.8572C33.3781 45.1346 34.1317 45.4314 34.8492 45.7947C35.093 45.9168 35.3313 46.0527 35.5585 46.1997C35.672 46.2746 36.0876 46.4854 36.0738 46.5187C36.0599 46.5547 35.8964 46.5686 35.8632 46.5741C35.7053 46.5936 35.0404 46.6463 34.8658 46.6629C34.4558 46.7045 34.043 46.7406 33.633 46.7766C32.7963 46.8543 31.9569 46.9181 31.1147 46.9652C30.2725 47.0124 29.4303 47.0457 28.5853 47.0595C28.3027 47.0651 28.0201 47.0679 27.7375 47.0679H27.7431ZM46.6152 44.4605C45.4988 44.7768 44.3573 45.0625 43.1993 45.3204C39.4398 40.7576 30.3556 36.7967 22.8256 36.2336C25.3051 33.7289 28.0451 31.202 29.8735 29.4019C29.6602 30.7527 29.591 32.4558 29.591 34.7996C29.591 35.2961 29.8043 35.4375 30.2309 35.4375C30.4442 35.4375 30.6576 35.4375 30.9402 35.3654C31.4361 35.2933 38.1073 33.8038 46.4075 33.8038C51.6574 33.8038 56.2702 34.6553 56.2702 37.6399C56.2702 41.5481 50.239 43.4648 46.6208 44.4605H46.6152Z" fill="#FFFAD2"/>
<path d="M208.041 30.225C207.93 30.0506 207.808 29.8816 207.678 29.7211C207.325 29.2919 206.903 28.9236 206.401 28.6744C205.49 28.2203 204.411 28.2037 203.417 28.4197C201.738 28.7879 200.247 29.6601 198.793 30.5351C198.485 30.7206 198.177 30.9034 197.869 31.0861C197.735 31.1637 197.602 31.2439 197.469 31.3215C196.692 31.7839 195.942 32.2878 195.185 32.7835C195.332 32.6866 195.473 32.3792 195.59 32.238C195.792 31.9916 196.009 31.759 196.217 31.5181C196.747 30.9061 197.275 30.2859 197.813 29.6767C198.968 28.3726 200.289 27.1072 201.299 25.6923C201.674 25.1662 202.035 24.5127 201.038 24.4934C198.871 24.4491 196.717 24.6512 194.555 24.6512C194.199 24.6512 193.844 24.7924 193.489 25.1468C187.377 31.3879 183.918 35.4361 178.8 40.8244C177.846 41.8073 176.746 42.9343 175.805 44.1581C172.436 46.2431 167.748 48.7711 161.739 50.9669C160.887 51.2493 159.321 51.6757 158.042 51.6757C155.838 51.6757 155.269 50.186 155.269 49.0508C155.269 47.7743 156.052 46.0022 157.401 43.9449C158.963 45.5758 161.098 46.4258 162.591 46.4258C167.923 46.4258 179.65 36.7818 179.652 29.973C179.652 28.8101 179.053 27.8382 178.317 26.9715C177.746 26.2987 177.254 25.6868 176.508 25.1828C175.764 24.6789 174.937 24.2968 174.068 24.0559C172.367 23.5879 170.543 23.6793 168.811 23.9119C166.566 24.2137 164.609 25.0914 162.749 26.343C161.386 27.2595 160.118 28.3089 158.894 29.4026C155.175 32.7336 151.552 36.4135 149.571 40.5115C140.925 48.3641 136.409 49.5409 134.935 49.5409C134.011 49.5409 133.728 49.1864 133.728 48.6188C133.728 45.6395 144.391 35.1453 153.204 26.7777L160.312 20.113C160.917 19.5619 161.819 18.8005 162.91 17.8175L170.321 17.8978C175.112 17.9698 184.06 18.7617 185.947 18.6897C186.608 18.6648 186.977 17.9228 186.605 17.38L183.724 13.7223C183.574 13.5313 183.413 13.3485 183.227 13.1935C183.114 13.0966 182.994 13.0467 182.703 13.0273C178.456 12.756 173.577 12.5483 168.817 12.4403H168.728C170.573 10.743 172.419 9.04565 174.259 7.34001C175.622 6.07462 177.088 4.85076 178.356 3.494C178.509 3.33063 178.625 3.09805 178.556 2.88207C178.459 2.58026 178.081 2.49166 177.768 2.45843C176.08 2.27014 174.382 2.20646 172.683 2.18708C171.315 2.17323 170.257 2.08463 168.894 2.19538C167.859 2.28122 166.876 3.13127 166.169 3.79304C165.53 4.38836 164.897 4.99198 164.265 5.59283C162.605 7.17387 160.951 8.76322 159.296 10.3498C158.969 10.6627 157.559 12.1884 157.381 12.18C154.841 12.0776 151.658 11.9281 148.169 11.7758C149.99 10.1034 151.811 8.42819 153.626 6.74469C155 5.46823 156.476 4.23607 157.759 2.86546C157.914 2.69932 158.031 2.46397 157.961 2.24799C157.864 1.94341 157.484 1.85481 157.167 1.81881C155.466 1.62776 153.751 1.56407 152.038 1.54469C150.656 1.53085 149.593 1.44224 148.219 1.553C147.175 1.63883 146.184 2.49719 145.471 3.1645C144.827 3.76535 144.189 4.37174 143.55 4.9809C141.877 6.57579 140.209 8.17898 138.538 9.77664C138.296 10.0065 137.472 10.8925 136.975 11.3466C132.282 11.2082 127.577 11.1085 122.881 11.2469C121.115 11.2995 119.347 11.3798 117.593 11.5847C116.527 11.7093 115.259 11.809 114.285 12.3074C112.897 13.019 111.875 14.9351 111.315 16.3334C110.649 17.9864 110.385 19.8056 110.607 21.5749C110.632 21.7715 110.674 21.9875 110.832 22.1038C111.007 22.2339 111.251 22.1896 111.465 22.1398C113.552 21.6525 115.609 21.1845 117.732 20.8883C121.046 20.4258 124.391 20.4314 127.696 19.9911C127.058 20.5892 126.417 21.1928 125.77 21.7992L120.438 26.6919C117.338 29.5965 114.249 32.5149 111.273 35.5468C108.486 38.3877 106.069 41.5387 102.899 43.9892C100.77 45.6367 98.5942 47.2011 96.321 48.6437C95.1136 49.408 93.8896 50.1556 92.5823 50.737C92.1632 50.9225 91.7302 51.0942 91.2722 51.1468C91.1584 51.1607 91.0391 51.1634 90.9364 51.1191C90.706 51.0167 90.6422 50.7204 90.6477 50.4684C90.6783 48.9871 91.8246 47.6165 92.7044 46.4895C93.4511 45.5315 94.2532 44.615 95.0665 43.7151C97.323 41.2175 99.7017 38.8252 102.075 36.4356C105.25 33.2431 108.445 30.0699 111.612 26.8691C111.95 26.5257 112.289 26.1852 112.628 25.8418C113.055 25.4154 113.055 25.2742 113.055 24.9918C113.055 24.4546 111.098 24.5127 110.804 24.5044C109.283 24.4601 107.762 24.5321 106.244 24.5681L103.607 24.629C103.263 24.6373 102.91 24.6457 102.594 24.7786C102.272 24.9115 102.019 25.1607 101.794 25.4154C101.55 25.6951 101.275 25.947 101.012 26.2129C100.415 26.8137 99.821 27.4146 99.2271 28.0154C98.0391 29.2199 96.8539 30.4271 95.666 31.6288C94.9527 32.3515 94.2393 33.0714 93.5232 33.7913C90.5978 36.7236 87.6085 39.595 84.5248 42.3639C82.2072 44.4433 79.8368 46.8329 76.9863 48.173C76.6532 48.3308 76.2702 48.4721 75.9205 48.3502C75.5596 48.2229 75.3459 47.8352 75.3043 47.4559C75.2543 46.9741 75.4347 46.4978 75.6457 46.0604C76.7698 43.7539 78.7488 41.8101 80.5224 39.9909C81.5799 38.9083 82.6624 37.8533 83.7615 36.815C84.905 35.7323 86.0652 34.6691 87.2365 33.6169C88.3606 32.6035 89.4959 31.6039 90.6366 30.6071C91.6386 29.7349 92.6461 28.8655 93.6565 28.0016C94.4308 27.337 95.2163 26.6836 95.9852 26.0135C96.1656 25.8557 96.3571 25.7117 96.5264 25.5455C96.6263 25.4486 96.7124 25.3351 96.7707 25.205C96.8178 25.0942 96.8678 24.9281 96.7956 24.8173C96.754 24.7536 96.6791 24.7204 96.6069 24.6983C96.3044 24.5986 95.9796 24.5903 95.666 24.5626C94.7945 24.4823 93.9146 24.4712 93.0403 24.4657C92.0438 24.4601 91.053 24.4795 90.0593 24.5072C88.8464 24.5404 87.6168 24.4546 86.4233 24.7149C85.0993 25.0028 83.9697 26.0329 82.926 26.8109C81.7214 27.7081 80.6612 28.6993 79.4788 29.6214C77.0224 31.5375 74.6798 33.5864 72.5287 35.8403C71.1687 37.2719 69.8614 38.7615 68.7095 40.3675C67.5604 41.9679 66.3947 43.8258 66.0061 45.7835C65.8506 46.5671 65.9173 47.3867 66.1143 48.1564C66.3891 49.2335 66.8998 50.2303 67.405 51.2216C68.1044 52.6005 68.8621 54.0597 70.2028 54.8322C71.3102 55.4719 72.6786 55.5411 73.9304 55.2753C75.9066 54.8572 77.7662 53.7911 79.3539 52.5728C80.0089 52.0827 80.6639 51.5926 81.319 51.1025C82.1406 50.4878 83.1314 49.9119 83.8475 49.1864C83.8892 49.2058 83.903 49.2418 83.9058 49.2889C84.0335 51.4403 85.3103 53.3979 86.9506 54.8018C87.7833 55.5134 88.7603 56.1281 89.8539 56.2416C90.6394 56.3247 91.4332 56.1392 92.1743 55.8706C94.1894 55.1424 96.1017 53.8853 97.9059 52.7473C99.7489 51.5843 101.35 50.0946 103.149 48.8985C103.612 50.5238 104.542 52.271 105.594 53.6028C106.641 54.9319 108.12 56.0063 109.799 56.2001C112.322 56.4908 115.131 55.0261 117.282 53.8188C119.902 52.3485 122.309 50.51 124.563 48.5358C124.99 51.2299 128.26 56.2665 131.316 56.2665C134.016 56.2665 137.641 54.6356 140.2 52.7916C143.584 50.4158 146.129 48.4665 148.025 46.8744C148.05 48.0318 148.824 49.192 149.454 50.114C150.387 51.4819 151.494 52.7362 152.696 53.8742C153.579 54.7104 154.528 55.5051 155.574 56.1364C157.412 57.244 159.574 57.0058 161.578 56.5462C163.757 56.0478 165.836 55.1728 167.795 54.1096C169.877 52.9798 171.836 51.6286 173.696 50.1639C174.146 52.6476 176.411 54.9956 177.24 54.9956C178.217 54.9956 178.798 54.0459 179.35 53.3619C181.09 51.2022 182.925 49.1477 184.812 47.1125C187.252 44.4848 189.625 41.7741 192.229 39.3098C193.369 38.2299 194.496 37.1279 195.72 36.1421C196.761 35.3004 198.024 34.3728 199.409 34.2953C200.172 34.2537 200.977 34.5113 201.48 35.0844C202.393 36.1255 201.763 37.1666 201.097 38.0859C200.458 38.9692 201.471 39.0882 202.246 39.2045C207.283 39.9688 210.758 34.4143 208.052 30.2028L208.041 30.225ZM172.253 29.6989C172.608 29.4857 173.249 29.2033 173.746 29.2033C174.243 29.2033 174.598 29.4165 174.598 29.9841C174.598 32.1826 165.214 42.1811 161.164 42.1811C160.809 42.1811 160.026 42.1091 159.457 41.2591C162.727 37.2885 167.49 32.9634 172.253 29.6989ZM128.604 40.0546C120.358 48.3502 114.956 49.5575 113.463 49.5575C112.539 49.5575 112.256 49.2031 112.256 48.6354C112.256 45.6561 122.919 35.1619 131.804 26.7223L137.988 20.9076C138.824 20.1517 139.642 19.3598 140.494 18.6233C140.875 18.2938 141.355 18.291 141.816 18.2772C142.246 18.2661 150.398 17.9144 151.294 18.0224C151.294 18.0224 150.803 18.4322 150.625 18.5928C150.009 19.1466 149.393 19.7032 148.791 20.2708L141.824 26.7943C135.64 32.609 131.588 37.078 128.601 40.0546H128.604Z" fill="#FFFAD2"/>
</svg>
