<svg width="776" height="274" viewBox="0 0 776 274" fill="none" xmlns="http://www.w3.org/2000/svg">
<path d="M756.995 171.128C759.982 171.128 762.584 171.512 764.803 172.28C767.022 173.048 768.984 174.072 770.691 175.352C771.886 176.291 772.91 177.613 773.763 179.32C774.616 180.941 775.043 182.819 775.043 184.952C775.043 187.256 774.19 189.304 772.483 191.096C770.862 192.888 768.686 193.784 765.955 193.784C763.139 193.784 760.792 192.973 758.915 191.352C757.123 189.731 756.227 187.512 756.227 184.696C756.227 182.477 756.867 180.515 758.147 178.808C759.427 177.101 761.304 175.907 763.779 175.224C763.523 174.712 763.011 174.285 762.243 173.944C761.475 173.603 760.451 173.432 759.171 173.432C757.464 173.432 756.056 173.731 754.947 174.328C753.838 174.925 752.942 175.736 752.259 176.76C751.32 178.04 750.68 179.917 750.339 182.392C749.998 184.781 749.827 188.493 749.827 193.528V205.176H763.523V207.736H749.827V258.04C749.827 262.221 750.894 265.037 753.027 266.488C755.16 267.853 758.104 268.536 761.859 268.536V271.224C759.64 271.139 756.526 271.053 752.515 270.968C748.504 270.797 744.28 270.712 739.843 270.712C736.6 270.712 733.4 270.797 730.243 270.968C727.171 271.053 724.824 271.139 723.203 271.224V268.536C726.19 268.536 728.28 267.896 729.475 266.616C730.755 265.336 731.395 262.904 731.395 259.32V207.736H722.691V205.176H731.395C731.395 200.141 731.651 195.96 732.163 192.632C732.675 189.219 733.528 186.317 734.723 183.928C735.918 181.539 737.496 179.405 739.459 177.528C741.336 175.736 743.811 174.243 746.883 173.048C750.04 171.768 753.411 171.128 756.995 171.128Z" fill="black"/>
<path d="M712.125 171V259.32C712.125 262.904 712.722 265.336 713.917 266.616C715.197 267.896 717.33 268.536 720.317 268.536V271.224C718.696 271.139 716.264 271.053 713.021 270.968C709.778 270.797 706.493 270.712 703.165 270.712C699.837 270.712 696.466 270.797 693.053 270.968C689.725 271.053 687.208 271.139 685.501 271.224V268.536C688.488 268.536 690.578 267.896 691.773 266.616C693.053 265.336 693.693 262.904 693.693 259.32V186.36C693.693 182.52 693.096 179.704 691.901 177.912C690.792 176.035 688.658 175.096 685.501 175.096V172.408C688.232 172.664 690.877 172.792 693.437 172.792C696.936 172.792 700.264 172.664 703.421 172.408C706.578 172.067 709.48 171.597 712.125 171Z" fill="black"/>
<path d="M650.472 203.256C656.701 203.256 662.163 204.408 666.856 206.712C671.549 209.016 675.219 212.728 677.864 217.848C680.509 222.968 681.832 229.752 681.832 238.2C681.832 246.648 680.509 253.432 677.864 258.552C675.219 263.587 671.549 267.256 666.856 269.56C662.163 271.864 656.701 273.016 650.472 273.016C644.413 273.016 638.995 271.864 634.216 269.56C629.523 267.256 625.811 263.587 623.08 258.552C620.435 253.432 619.112 246.648 619.112 238.2C619.112 229.752 620.435 222.968 623.08 217.848C625.811 212.728 629.523 209.016 634.216 206.712C638.995 204.408 644.413 203.256 650.472 203.256ZM650.472 205.816C647.059 205.816 644.2 208.376 641.896 213.496C639.592 218.531 638.44 226.765 638.44 238.2C638.44 249.635 639.592 257.869 641.896 262.904C644.2 267.939 647.059 270.456 650.472 270.456C653.971 270.456 656.829 267.939 659.048 262.904C661.352 257.869 662.504 249.635 662.504 238.2C662.504 226.765 661.352 218.531 659.048 213.496C656.829 208.376 653.971 205.816 650.472 205.816Z" fill="black"/>
<path d="M574.651 178.808C580.454 178.808 585.19 179.619 588.859 181.24C592.528 182.861 595.814 184.824 598.715 187.128C599.739 187.896 600.592 188.28 601.275 188.28C602.896 188.28 603.963 185.72 604.475 180.6H607.419C607.248 183.928 607.12 187.981 607.035 192.76C606.95 197.453 606.907 203.725 606.907 211.576H603.963C603.366 206.456 602.427 202.019 601.147 198.264C599.952 194.424 597.691 191.139 594.363 188.408C592.315 186.445 589.755 184.909 586.683 183.8C583.696 182.691 580.667 182.136 577.595 182.136C572.902 182.136 568.891 183.373 565.563 185.848C562.235 188.237 559.504 191.523 557.371 195.704C555.238 199.885 553.659 204.621 552.635 209.912C551.611 215.117 551.099 220.536 551.099 226.168C551.099 241.528 553.19 252.749 557.371 259.832C561.638 266.915 567.739 270.456 575.675 270.456C577.723 270.456 579.515 270.2 581.051 269.688C582.587 269.176 583.824 268.579 584.763 267.896C585.958 267.043 586.768 266.147 587.195 265.208C587.622 264.184 587.835 262.861 587.835 261.24V248.696C587.835 244.771 587.494 241.869 586.811 239.992C586.214 238.029 584.976 236.707 583.099 236.024C581.222 235.341 578.491 234.957 574.907 234.872V232.312C576.699 232.397 578.832 232.483 581.307 232.568C583.867 232.568 586.512 232.611 589.243 232.696C591.974 232.696 594.491 232.696 596.795 232.696C600.379 232.696 603.664 232.653 606.651 232.568C609.638 232.483 612.07 232.397 613.947 232.312V234.872C612.326 234.957 611.088 235.256 610.235 235.768C609.467 236.28 608.912 237.304 608.571 238.84C608.315 240.376 608.187 242.723 608.187 245.88V271.224H605.627C605.542 269.773 605.2 268.195 604.603 266.488C604.091 264.781 603.195 263.928 601.915 263.928C601.318 263.928 600.507 264.099 599.483 264.44C598.544 264.696 597.051 265.421 595.003 266.616C591.846 268.408 588.518 269.944 585.019 271.224C581.52 272.419 577.851 273.016 574.011 273.016C564.112 273.016 555.75 271.181 548.923 267.512C542.096 263.843 536.934 258.595 533.435 251.768C530.022 244.856 528.315 236.579 528.315 226.936C528.315 217.208 530.278 208.76 534.203 201.592C538.214 194.424 543.675 188.835 550.587 184.824C557.584 180.813 565.606 178.808 574.651 178.808Z" fill="black"/>
<path d="M488.16 203.256C490.891 203.256 493.109 203.853 494.816 205.048C496.523 206.157 497.76 207.608 498.528 209.4C499.381 211.192 499.808 213.069 499.808 215.032C499.808 218.189 498.869 220.792 496.992 222.84C495.2 224.803 492.811 225.784 489.824 225.784C486.837 225.784 484.491 225.059 482.784 223.608C481.163 222.072 480.352 220.067 480.352 217.592C480.352 215.203 480.864 213.24 481.888 211.704C482.997 210.083 484.363 208.717 485.984 207.608C484.789 207.267 483.595 207.309 482.4 207.736C480.779 207.992 479.243 208.675 477.792 209.784C476.341 210.808 475.104 212.131 474.08 213.752C473.056 215.288 472.245 216.995 471.648 218.872C471.051 220.664 470.752 222.413 470.752 224.12V258.04C470.752 262.136 471.733 264.909 473.696 266.36C475.744 267.811 478.773 268.536 482.784 268.536V271.224C480.821 271.139 477.963 271.053 474.208 270.968C470.453 270.797 466.528 270.712 462.432 270.712C459.019 270.712 455.563 270.797 452.064 270.968C448.565 271.053 445.92 271.139 444.128 271.224V268.536C447.115 268.536 449.205 267.896 450.4 266.616C451.68 265.336 452.32 262.904 452.32 259.32V219C452.32 215.16 451.723 212.344 450.528 210.552C449.419 208.675 447.285 207.736 444.128 207.736V205.048C446.859 205.304 449.504 205.432 452.064 205.432C455.648 205.432 458.976 205.304 462.048 205.048C465.205 204.707 468.107 204.237 470.752 203.64V215.544C471.776 213.24 473.141 211.149 474.848 209.272C476.555 207.395 478.517 205.944 480.736 204.92C482.955 203.811 485.429 203.256 488.16 203.256Z" fill="black"/>
<path d="M415.962 203.256C423.471 203.256 429.359 205.475 433.626 209.912C437.893 214.349 440.026 221.603 440.026 231.672H397.914L397.658 229.24H423.898C423.983 225.059 423.727 221.219 423.13 217.72C422.533 214.136 421.594 211.277 420.314 209.144C419.034 207.011 417.327 205.944 415.194 205.944C412.207 205.944 409.647 207.821 407.514 211.576C405.466 215.331 404.229 221.56 403.802 230.264L404.186 231.032C404.101 232.056 404.015 233.123 403.93 234.232C403.93 235.341 403.93 236.493 403.93 237.688C403.93 243.576 404.741 248.355 406.362 252.024C408.069 255.693 410.202 258.381 412.762 260.088C415.322 261.709 417.925 262.52 420.57 262.52C422.362 262.52 424.197 262.264 426.074 261.752C428.037 261.155 429.999 260.131 431.962 258.68C433.925 257.144 435.759 255.011 437.466 252.28L439.77 253.048C438.746 256.291 437.125 259.448 434.906 262.52C432.687 265.592 429.871 268.109 426.458 270.072C423.045 272.035 418.949 273.016 414.17 273.016C408.367 273.016 403.247 271.779 398.81 269.304C394.373 266.829 390.874 263.075 388.314 258.04C385.839 253.005 384.602 246.605 384.602 238.84C384.602 230.904 385.925 224.291 388.57 219C391.301 213.709 395.013 209.784 399.706 207.224C404.485 204.579 409.903 203.256 415.962 203.256Z" fill="black"/>
<path d="M366.982 184.056V205.048H382.086V207.608H366.982V259.32C366.982 261.88 367.451 263.715 368.39 264.824C369.329 265.848 370.737 266.36 372.614 266.36C374.15 266.36 375.686 265.805 377.222 264.696C378.758 263.501 380.123 261.496 381.318 258.68L383.494 259.832C382.129 263.672 380.038 266.829 377.222 269.304C374.491 271.779 370.737 273.016 365.958 273.016C363.142 273.016 360.667 272.632 358.534 271.864C356.401 271.181 354.609 270.115 353.158 268.664C351.281 266.787 350.043 264.483 349.446 261.752C348.849 258.936 348.55 255.309 348.55 250.872V207.608H337.798V205.048H348.55V188.152C352.134 188.152 355.419 187.853 358.406 187.256C361.478 186.573 364.337 185.507 366.982 184.056Z" fill="black"/>
<path d="M328.167 184.056V205.048H343.271V207.608H328.167V259.32C328.167 261.88 328.636 263.715 329.575 264.824C330.514 265.848 331.922 266.36 333.799 266.36C335.335 266.36 336.871 265.805 338.407 264.696C339.943 263.501 341.308 261.496 342.503 258.68L344.679 259.832C343.314 263.672 341.223 266.829 338.407 269.304C335.676 271.779 331.922 273.016 327.143 273.016C324.327 273.016 321.852 272.632 319.719 271.864C317.586 271.181 315.794 270.115 314.343 268.664C312.466 266.787 311.228 264.483 310.631 261.752C310.034 258.936 309.735 255.309 309.735 250.872V207.608H298.983V205.048H309.735V188.152C313.319 188.152 316.604 187.853 319.591 187.256C322.663 186.573 325.522 185.507 328.167 184.056Z" fill="black"/>
<path d="M290.862 203.64V257.272C290.862 261.112 291.459 263.971 292.654 265.848C293.849 267.64 295.982 268.536 299.054 268.536V271.224C296.409 270.968 293.763 270.84 291.118 270.84C287.534 270.84 284.206 270.968 281.134 271.224C278.062 271.48 275.161 271.949 272.43 272.632V261.112C270.382 265.379 267.523 268.451 263.854 270.328C260.27 272.12 256.259 273.016 251.822 273.016C248.238 273.016 245.337 272.547 243.118 271.608C240.899 270.669 239.15 269.475 237.87 268.024C236.419 266.403 235.395 264.269 234.798 261.624C234.201 258.979 233.902 255.565 233.902 251.384V219C233.902 215.16 233.305 212.344 232.11 210.552C231.001 208.675 228.867 207.736 225.71 207.736V205.048C228.441 205.304 231.086 205.432 233.646 205.432C237.23 205.432 240.558 205.304 243.63 205.048C246.787 204.707 249.689 204.237 252.334 203.64V256.632C252.334 258.765 252.505 260.643 252.846 262.264C253.273 263.885 254.041 265.165 255.15 266.104C256.259 266.957 257.881 267.384 260.014 267.384C262.318 267.384 264.366 266.744 266.158 265.464C268.035 264.184 269.529 262.435 270.638 260.216C271.833 257.912 272.43 255.352 272.43 252.536V219C272.43 215.16 271.833 212.344 270.638 210.552C269.529 208.675 267.395 207.736 264.238 207.736V205.048C266.969 205.304 269.614 205.432 272.174 205.432C275.758 205.432 279.086 205.304 282.158 205.048C285.315 204.707 288.217 204.237 290.862 203.64Z" fill="black"/>
<path d="M144.958 180.6C147.177 180.685 150.078 180.771 153.662 180.856C157.246 180.941 160.83 180.984 164.414 180.984C168.51 180.984 172.478 180.941 176.318 180.856C180.158 180.771 182.889 180.728 184.51 180.728C195.091 180.728 202.985 182.605 208.19 186.36C213.481 190.115 216.126 194.936 216.126 200.824C216.126 203.811 215.23 206.84 213.438 209.912C211.646 212.984 208.873 215.715 205.118 218.104C201.363 220.493 196.499 222.243 190.526 223.352V223.608C198.547 224.205 204.905 225.656 209.598 227.96C214.291 230.264 217.662 233.037 219.71 236.28C221.758 239.523 222.782 242.893 222.782 246.392C222.782 251.768 221.374 256.291 218.558 259.96C215.742 263.629 211.689 266.445 206.398 268.408C201.107 270.285 194.793 271.224 187.454 271.224C185.406 271.224 182.462 271.181 178.622 271.096C174.782 270.925 170.131 270.84 164.67 270.84C160.915 270.84 157.246 270.883 153.662 270.968C150.078 270.968 147.177 271.053 144.958 271.224V268.664C147.689 268.493 149.737 268.152 151.102 267.64C152.467 267.128 153.363 266.104 153.79 264.568C154.302 263.032 154.558 260.728 154.558 257.656V194.168C154.558 191.011 154.302 188.707 153.79 187.256C153.363 185.72 152.425 184.696 150.974 184.184C149.609 183.587 147.603 183.245 144.958 183.16V180.6ZM182.846 183.16C179.518 183.16 177.342 183.885 176.318 185.336C175.379 186.787 174.91 189.731 174.91 194.168V257.656C174.91 260.643 175.123 262.904 175.55 264.44C176.062 265.976 176.915 267 178.11 267.512C179.39 268.024 181.267 268.28 183.742 268.28C189.886 268.28 194.366 266.36 197.182 262.52C200.083 258.595 201.534 253.048 201.534 245.88C201.534 239.309 199.87 234.232 196.542 230.648C193.299 227.064 187.881 225.272 180.286 225.272H169.406C169.406 225.272 169.406 224.931 169.406 224.248C169.406 223.48 169.406 223.096 169.406 223.096H180.414C184.425 223.096 187.497 222.157 189.63 220.28C191.763 218.317 193.257 215.757 194.11 212.6C194.963 209.357 195.39 205.901 195.39 202.232C195.39 195.917 194.409 191.181 192.446 188.024C190.483 184.781 187.283 183.16 182.846 183.16Z" fill="black"/>
<path d="M79.572 203.256C85.8013 203.256 91.2627 204.408 95.956 206.712C100.649 209.016 104.319 212.728 106.964 217.848C109.609 222.968 110.932 229.752 110.932 238.2C110.932 246.648 109.609 253.432 106.964 258.552C104.319 263.587 100.649 267.256 95.956 269.56C91.2627 271.864 85.8013 273.016 79.572 273.016C73.5133 273.016 68.0947 271.864 63.316 269.56C58.6227 267.256 54.9107 263.587 52.18 258.552C49.5347 253.432 48.212 246.648 48.212 238.2C48.212 229.752 49.5347 222.968 52.18 217.848C54.9107 212.728 58.6227 209.016 63.316 206.712C68.0947 204.408 73.5133 203.256 79.572 203.256ZM79.572 205.816C76.1587 205.816 73.3 208.376 70.996 213.496C68.692 218.531 67.54 226.765 67.54 238.2C67.54 249.635 68.692 257.869 70.996 262.904C73.3 267.939 76.1587 270.456 79.572 270.456C83.0707 270.456 85.9293 267.939 88.148 262.904C90.452 257.869 91.604 249.635 91.604 238.2C91.604 226.765 90.452 218.531 88.148 213.496C85.9293 208.376 83.0707 205.816 79.572 205.816Z" fill="black"/>
<path d="M30.592 184.056V205.048H45.696V207.608H30.592V259.32C30.592 261.88 31.0613 263.715 32 264.824C32.9387 265.848 34.3467 266.36 36.224 266.36C37.76 266.36 39.296 265.805 40.832 264.696C42.368 263.501 43.7333 261.496 44.928 258.68L47.104 259.832C45.7387 263.672 43.648 266.829 40.832 269.304C38.1013 271.779 34.3467 273.016 29.568 273.016C26.752 273.016 24.2773 272.632 22.144 271.864C20.0107 271.181 18.2187 270.115 16.768 268.664C14.8907 266.787 13.6533 264.483 13.056 261.752C12.4587 258.936 12.16 255.309 12.16 250.872V207.608H1.40799V205.048H12.16V188.152C15.744 188.152 19.0293 187.853 22.016 187.256C25.088 186.573 27.9467 185.507 30.592 184.056Z" fill="black"/>
<path d="M491.897 32.256C499.406 32.256 505.294 34.4746 509.561 38.912C513.828 43.3493 515.961 50.6026 515.961 60.672H473.849L473.593 58.24H499.833C499.918 54.0586 499.662 50.2187 499.065 46.72C498.468 43.136 497.529 40.2773 496.249 38.144C494.969 36.0106 493.262 34.944 491.129 34.944C488.142 34.944 485.582 36.8213 483.449 40.576C481.401 44.3306 480.164 50.56 479.737 59.264L480.121 60.032C480.036 61.056 479.95 62.1226 479.865 63.232C479.865 64.3413 479.865 65.4933 479.865 66.688C479.865 72.576 480.676 77.3547 482.297 81.024C484.004 84.6933 486.137 87.3813 488.697 89.088C491.257 90.7093 493.86 91.52 496.505 91.52C498.297 91.52 500.132 91.264 502.009 90.752C503.972 90.1547 505.934 89.1307 507.897 87.68C509.86 86.144 511.694 84.0106 513.401 81.28L515.705 82.048C514.681 85.2906 513.06 88.448 510.841 91.52C508.622 94.592 505.806 97.1093 502.393 99.072C498.98 101.035 494.884 102.016 490.105 102.016C484.302 102.016 479.182 100.779 474.745 98.304C470.308 95.8293 466.809 92.0747 464.249 87.04C461.774 82.0053 460.537 75.6053 460.537 67.84C460.537 59.904 461.86 53.2907 464.505 48C467.236 42.7093 470.948 38.784 475.641 36.224C480.42 33.5786 485.838 32.256 491.897 32.256Z" fill="black"/>
<path d="M392.022 32.256C395.606 32.256 398.507 32.7253 400.726 33.664C402.945 34.5173 404.737 35.712 406.102 37.248C407.467 38.8693 408.449 41.0026 409.046 43.648C409.643 46.208 409.942 49.6213 409.942 53.888V88.32C409.942 91.904 410.497 94.336 411.606 95.616C412.715 96.896 414.635 97.536 417.366 97.536V100.224C415.83 100.139 413.483 100.053 410.326 99.968C407.254 99.7973 404.225 99.712 401.238 99.712C398.166 99.712 395.137 99.7973 392.15 99.968C389.163 100.053 386.902 100.139 385.366 100.224V97.536C387.67 97.536 389.249 96.896 390.102 95.616C391.041 94.336 391.51 91.904 391.51 88.32V48.512C391.51 46.3786 391.339 44.544 390.998 43.008C390.657 41.3866 389.974 40.1493 388.95 39.296C388.011 38.3573 386.561 37.888 384.598 37.888C382.379 37.888 380.331 38.528 378.454 39.808C376.577 41.088 375.041 42.88 373.846 45.184C372.737 47.4026 372.182 49.92 372.182 52.736V88.32C372.182 91.904 372.651 94.336 373.59 95.616C374.529 96.896 376.107 97.536 378.326 97.536V100.224C376.961 100.139 374.827 100.053 371.926 99.968C369.11 99.7973 366.209 99.712 363.222 99.712C359.979 99.712 356.651 99.7973 353.238 99.968C349.825 100.053 347.265 100.139 345.558 100.224V97.536C348.545 97.536 350.635 96.896 351.83 95.616C353.11 94.336 353.75 91.904 353.75 88.32V48C353.75 44.16 353.153 41.344 351.958 39.552C350.849 37.6746 348.715 36.736 345.558 36.736V34.048C348.289 34.304 350.934 34.432 353.494 34.432C357.078 34.432 360.406 34.304 363.478 34.048C366.635 33.7066 369.537 33.2373 372.182 32.64V44.16C374.23 39.8933 377.003 36.864 380.502 35.072C384.001 33.1946 387.841 32.256 392.022 32.256ZM430.55 32.256C434.134 32.256 437.035 32.7253 439.254 33.664C441.473 34.5173 443.265 35.712 444.63 37.248C445.995 38.8693 446.977 41.0026 447.574 43.648C448.171 46.208 448.47 49.6213 448.47 53.888V88.32C448.47 91.904 449.067 94.336 450.262 95.616C451.542 96.896 453.675 97.536 456.662 97.536V100.224C455.041 100.139 452.609 100.053 449.366 99.968C446.123 99.7973 442.923 99.712 439.766 99.712C436.694 99.712 433.665 99.7973 430.678 99.968C427.691 100.053 425.43 100.139 423.894 100.224V97.536C426.198 97.536 427.777 96.896 428.63 95.616C429.569 94.336 430.038 91.904 430.038 88.32V48.512C430.038 46.3786 429.825 44.544 429.398 43.008C429.057 41.3866 428.331 40.1493 427.222 39.296C426.198 38.3573 424.577 37.888 422.358 37.888C420.139 37.888 418.091 38.5706 416.214 39.936C414.337 41.3013 412.801 43.136 411.606 45.44C410.497 47.744 409.899 50.304 409.814 53.12L409.174 45.312C411.478 40.192 414.507 36.736 418.262 34.944C422.102 33.152 426.198 32.256 430.55 32.256Z" fill="black"/>
<path d="M308.767 32.256C314.996 32.256 320.458 33.408 325.151 35.712C329.844 38.016 333.514 41.728 336.159 46.848C338.804 51.968 340.127 58.752 340.127 67.2C340.127 75.648 338.804 82.432 336.159 87.552C333.514 92.5867 329.844 96.256 325.151 98.56C320.458 100.864 314.996 102.016 308.767 102.016C302.708 102.016 297.29 100.864 292.511 98.56C287.818 96.256 284.106 92.5867 281.375 87.552C278.73 82.432 277.407 75.648 277.407 67.2C277.407 58.752 278.73 51.968 281.375 46.848C284.106 41.728 287.818 38.016 292.511 35.712C297.29 33.408 302.708 32.256 308.767 32.256ZM308.767 34.816C305.354 34.816 302.495 37.376 300.191 42.496C297.887 47.5306 296.735 55.7653 296.735 67.2C296.735 78.6346 297.887 86.8693 300.191 91.904C302.495 96.9386 305.354 99.456 308.767 99.456C312.266 99.456 315.124 96.9386 317.343 91.904C319.647 86.8693 320.799 78.6346 320.799 67.2C320.799 55.7653 319.647 47.5306 317.343 42.496C315.124 37.376 312.266 34.816 308.767 34.816Z" fill="black"/>
<path d="M248.083 32.256C251.411 32.256 254.44 32.64 257.171 33.408C259.987 34.0906 262.291 34.9866 264.083 36.096C266.302 37.4613 268.008 39.168 269.203 41.216C270.483 43.1786 271.123 45.4826 271.123 48.128C271.123 51.1146 270.184 53.5893 268.307 55.552C266.43 57.4293 263.998 58.368 261.011 58.368C258.024 58.368 255.635 57.5146 253.843 55.808C252.051 54.1013 251.155 51.7973 251.155 48.896C251.155 46.1653 252.008 43.904 253.715 42.112C255.422 40.2347 257.384 38.9973 259.603 38.4C258.92 37.5466 257.896 36.8213 256.531 36.224C255.166 35.6266 253.63 35.328 251.923 35.328C249.278 35.328 246.931 36.096 244.883 37.632C242.92 39.168 241.256 41.3013 239.891 44.032C238.526 46.7626 237.459 49.9626 236.691 53.632C236.008 57.3013 235.667 61.312 235.667 65.664C235.667 72.2347 236.478 77.3973 238.099 81.152C239.806 84.9067 241.939 87.552 244.499 89.088C247.144 90.624 249.875 91.392 252.691 91.392C254.312 91.392 256.062 91.136 257.939 90.624C259.902 90.112 261.864 89.088 263.827 87.552C265.875 86.016 267.752 83.84 269.459 81.024L271.635 81.792C270.696 84.9493 269.16 88.1066 267.027 91.264C264.894 94.4213 262.12 97.024 258.707 99.072C255.294 101.035 251.112 102.016 246.163 102.016C240.616 102.016 235.582 100.821 231.059 98.432C226.622 95.9573 223.038 92.2027 220.307 87.168C217.662 82.048 216.339 75.4773 216.339 67.456C216.339 59.776 217.704 53.3333 220.435 48.128C223.251 42.8373 227.048 38.8693 231.827 36.224C236.606 33.5786 242.024 32.256 248.083 32.256Z" fill="black"/>
<path d="M204.975 0V88.32C204.975 91.904 205.572 94.336 206.767 95.616C208.047 96.896 210.18 97.536 213.167 97.536V100.224C211.546 100.139 209.114 100.053 205.871 99.968C202.628 99.7973 199.343 99.712 196.015 99.712C192.687 99.712 189.316 99.7973 185.903 99.968C182.575 100.053 180.058 100.139 178.351 100.224V97.536C181.338 97.536 183.428 96.896 184.623 95.616C185.903 94.336 186.543 91.904 186.543 88.32V15.36C186.543 11.52 185.946 8.704 184.751 6.912C183.642 5.03467 181.508 4.096 178.351 4.096V1.408C181.082 1.664 183.727 1.792 186.287 1.792C189.786 1.792 193.114 1.664 196.271 1.408C199.428 1.06667 202.33 0.597336 204.975 0Z" fill="black"/>
<path d="M149.947 32.256C157.456 32.256 163.344 34.4746 167.611 38.912C171.878 43.3493 174.011 50.6026 174.011 60.672H131.899L131.643 58.24H157.883C157.968 54.0586 157.712 50.2187 157.115 46.72C156.518 43.136 155.579 40.2773 154.299 38.144C153.019 36.0106 151.312 34.944 149.179 34.944C146.192 34.944 143.632 36.8213 141.499 40.576C139.451 44.3306 138.214 50.56 137.787 59.264L138.171 60.032C138.086 61.056 138 62.1226 137.915 63.232C137.915 64.3413 137.915 65.4933 137.915 66.688C137.915 72.576 138.726 77.3547 140.347 81.024C142.054 84.6933 144.187 87.3813 146.747 89.088C149.307 90.7093 151.91 91.52 154.555 91.52C156.347 91.52 158.182 91.264 160.059 90.752C162.022 90.1547 163.984 89.1307 165.947 87.68C167.91 86.144 169.744 84.0106 171.451 81.28L173.755 82.048C172.731 85.2906 171.11 88.448 168.891 91.52C166.672 94.592 163.856 97.1093 160.443 99.072C157.03 101.035 152.934 102.016 148.155 102.016C142.352 102.016 137.232 100.779 132.795 98.304C128.358 95.8293 124.859 92.0747 122.299 87.04C119.824 82.0053 118.587 75.6053 118.587 67.84C118.587 59.904 119.91 53.2907 122.555 48C125.286 42.7093 128.998 38.784 133.691 36.224C138.47 33.5786 143.888 32.256 149.947 32.256Z" fill="black"/>
<path d="M126.208 9.60001V12.16C124.331 12.8427 122.368 14.336 120.32 16.64C118.272 18.8587 116.48 22.4427 114.944 27.392L92.416 100.48C91.7333 100.395 91.008 100.352 90.24 100.352C89.472 100.352 88.704 100.352 87.936 100.352C87.168 100.352 86.4 100.352 85.632 100.352C84.864 100.352 84.1387 100.395 83.456 100.48L56.576 19.072C55.7227 16.4267 54.656 14.6347 53.376 13.696C52.1813 12.7573 50.9013 12.2453 49.536 12.16V9.60001C51.9253 9.68534 54.7413 9.77067 57.984 9.856C61.312 9.94134 64.5973 9.984 67.84 9.984C71.5947 9.984 75.0933 9.94134 78.336 9.856C81.664 9.77067 84.3093 9.68534 86.272 9.60001V12.16C83.712 12.2453 81.664 12.544 80.128 13.056C78.6773 13.568 77.824 14.5493 77.568 16C77.3973 17.4507 77.824 19.7547 78.848 22.912L97.024 78.464L94.08 83.712L108.544 37.76C110.592 31.2747 111.573 26.1973 111.488 22.528C111.403 18.8587 110.421 16.256 108.544 14.72C106.667 13.0987 103.979 12.2453 100.48 12.16V9.60001C103.381 9.68534 106.112 9.77067 108.672 9.856C111.232 9.94134 113.792 9.984 116.352 9.984C118.315 9.984 120.107 9.94134 121.728 9.856C123.435 9.77067 124.928 9.68534 126.208 9.60001ZM34.816 9.60001V12.16C33.1093 12.416 31.9147 13.056 31.232 14.08C30.5493 15.0187 30.2507 16.2987 30.336 17.92C30.5067 19.456 30.8907 21.12 31.488 22.912L51.072 79.744L47.616 84.352L64 36.48L65.792 39.936L45.696 100.48C45.0133 100.395 44.288 100.352 43.52 100.352C42.752 100.352 41.984 100.352 41.216 100.352C40.448 100.352 39.68 100.352 38.912 100.352C38.144 100.352 37.4187 100.395 36.736 100.48L8.064 20.352C6.95467 17.1947 5.632 15.0613 4.096 13.952C2.64533 12.8427 1.28 12.2453 0 12.16V9.60001C2.56 9.68534 5.58933 9.77067 9.088 9.856C12.5867 9.94134 15.9147 9.984 19.072 9.984C22.4853 9.984 25.5147 9.94134 28.16 9.856C30.8907 9.77067 33.1093 9.68534 34.816 9.60001Z" fill="black"/>
</svg>
