<svg width="653" height="274" viewBox="0 0 653 274" fill="none" xmlns="http://www.w3.org/2000/svg">
<path d="M617.925 171.128C620.912 171.128 623.514 171.512 625.733 172.28C627.952 173.048 629.914 174.072 631.621 175.352C632.816 176.291 633.84 177.613 634.693 179.32C635.546 180.941 635.973 182.819 635.973 184.952C635.973 187.256 635.12 189.304 633.413 191.096C631.792 192.888 629.616 193.784 626.885 193.784C624.069 193.784 621.722 192.973 619.845 191.352C618.053 189.731 617.157 187.512 617.157 184.696C617.157 182.477 617.797 180.515 619.077 178.808C620.357 177.101 622.234 175.907 624.709 175.224C624.453 174.712 623.941 174.285 623.173 173.944C622.405 173.603 621.381 173.432 620.101 173.432C618.394 173.432 616.986 173.731 615.877 174.328C614.768 174.925 613.872 175.736 613.189 176.76C612.25 178.04 611.61 179.917 611.269 182.392C610.928 184.781 610.757 188.493 610.757 193.528V205.176H624.453V207.736H610.757V258.04C610.757 262.221 611.824 265.037 613.957 266.488C616.09 267.853 619.034 268.536 622.789 268.536V271.224C620.57 271.139 617.456 271.053 613.445 270.968C609.434 270.797 605.21 270.712 600.773 270.712C597.53 270.712 594.33 270.797 591.173 270.968C588.101 271.053 585.754 271.139 584.133 271.224V268.536C587.12 268.536 589.21 267.896 590.405 266.616C591.685 265.336 592.325 262.904 592.325 259.32V207.736H583.621V205.176H592.325C592.325 200.141 592.581 195.96 593.093 192.632C593.605 189.219 594.458 186.317 595.653 183.928C596.848 181.539 598.426 179.405 600.389 177.528C602.266 175.736 604.741 174.243 607.813 173.048C610.97 171.768 614.341 171.128 617.925 171.128Z" fill="black"/>
<path d="M573.055 171V259.32C573.055 262.904 573.652 265.336 574.847 266.616C576.127 267.896 578.26 268.536 581.247 268.536V271.224C579.626 271.139 577.194 271.053 573.951 270.968C570.708 270.797 567.423 270.712 564.095 270.712C560.767 270.712 557.396 270.797 553.983 270.968C550.655 271.053 548.138 271.139 546.431 271.224V268.536C549.418 268.536 551.508 267.896 552.703 266.616C553.983 265.336 554.623 262.904 554.623 259.32V186.36C554.623 182.52 554.026 179.704 552.831 177.912C551.722 176.035 549.588 175.096 546.431 175.096V172.408C549.162 172.664 551.807 172.792 554.367 172.792C557.866 172.792 561.194 172.664 564.351 172.408C567.508 172.067 570.41 171.597 573.055 171Z" fill="black"/>
<path d="M511.402 203.256C517.631 203.256 523.093 204.408 527.786 206.712C532.479 209.016 536.149 212.728 538.794 217.848C541.439 222.968 542.762 229.752 542.762 238.2C542.762 246.648 541.439 253.432 538.794 258.552C536.149 263.587 532.479 267.256 527.786 269.56C523.093 271.864 517.631 273.016 511.402 273.016C505.343 273.016 499.925 271.864 495.146 269.56C490.453 267.256 486.741 263.587 484.01 258.552C481.365 253.432 480.042 246.648 480.042 238.2C480.042 229.752 481.365 222.968 484.01 217.848C486.741 212.728 490.453 209.016 495.146 206.712C499.925 204.408 505.343 203.256 511.402 203.256ZM511.402 205.816C507.989 205.816 505.13 208.376 502.826 213.496C500.522 218.531 499.37 226.765 499.37 238.2C499.37 249.635 500.522 257.869 502.826 262.904C505.13 267.939 507.989 270.456 511.402 270.456C514.901 270.456 517.759 267.939 519.978 262.904C522.282 257.869 523.434 249.635 523.434 238.2C523.434 226.765 522.282 218.531 519.978 213.496C517.759 208.376 514.901 205.816 511.402 205.816Z" fill="black"/>
<path d="M435.581 178.808C441.384 178.808 446.12 179.619 449.789 181.24C453.458 182.861 456.744 184.824 459.645 187.128C460.669 187.896 461.522 188.28 462.205 188.28C463.826 188.28 464.893 185.72 465.405 180.6H468.349C468.178 183.928 468.05 187.981 467.965 192.76C467.88 197.453 467.837 203.725 467.837 211.576H464.893C464.296 206.456 463.357 202.019 462.077 198.264C460.882 194.424 458.621 191.139 455.293 188.408C453.245 186.445 450.685 184.909 447.613 183.8C444.626 182.691 441.597 182.136 438.525 182.136C433.832 182.136 429.821 183.373 426.493 185.848C423.165 188.237 420.434 191.523 418.301 195.704C416.168 199.885 414.589 204.621 413.565 209.912C412.541 215.117 412.029 220.536 412.029 226.168C412.029 241.528 414.12 252.749 418.301 259.832C422.568 266.915 428.669 270.456 436.605 270.456C438.653 270.456 440.445 270.2 441.981 269.688C443.517 269.176 444.754 268.579 445.693 267.896C446.888 267.043 447.698 266.147 448.125 265.208C448.552 264.184 448.765 262.861 448.765 261.24V248.696C448.765 244.771 448.424 241.869 447.741 239.992C447.144 238.029 445.906 236.707 444.029 236.024C442.152 235.341 439.421 234.957 435.837 234.872V232.312C437.629 232.397 439.762 232.483 442.237 232.568C444.797 232.568 447.442 232.611 450.173 232.696C452.904 232.696 455.421 232.696 457.725 232.696C461.309 232.696 464.594 232.653 467.581 232.568C470.568 232.483 473 232.397 474.877 232.312V234.872C473.256 234.957 472.018 235.256 471.165 235.768C470.397 236.28 469.842 237.304 469.501 238.84C469.245 240.376 469.117 242.723 469.117 245.88V271.224H466.557C466.472 269.773 466.13 268.195 465.533 266.488C465.021 264.781 464.125 263.928 462.845 263.928C462.248 263.928 461.437 264.099 460.413 264.44C459.474 264.696 457.981 265.421 455.933 266.616C452.776 268.408 449.448 269.944 445.949 271.224C442.45 272.419 438.781 273.016 434.941 273.016C425.042 273.016 416.68 271.181 409.853 267.512C403.026 263.843 397.864 258.595 394.365 251.768C390.952 244.856 389.245 236.579 389.245 226.936C389.245 217.208 391.208 208.76 395.133 201.592C399.144 194.424 404.605 188.835 411.517 184.824C418.514 180.813 426.536 178.808 435.581 178.808Z" fill="black"/>
<path d="M349.09 203.256C351.821 203.256 354.039 203.853 355.746 205.048C357.453 206.157 358.69 207.608 359.458 209.4C360.311 211.192 360.738 213.069 360.738 215.032C360.738 218.189 359.799 220.792 357.922 222.84C356.13 224.803 353.741 225.784 350.754 225.784C347.767 225.784 345.421 225.059 343.714 223.608C342.093 222.072 341.282 220.067 341.282 217.592C341.282 215.203 341.794 213.24 342.818 211.704C343.927 210.083 345.293 208.717 346.914 207.608C345.719 207.267 344.525 207.309 343.33 207.736C341.709 207.992 340.173 208.675 338.722 209.784C337.271 210.808 336.034 212.131 335.01 213.752C333.986 215.288 333.175 216.995 332.578 218.872C331.981 220.664 331.682 222.413 331.682 224.12V258.04C331.682 262.136 332.663 264.909 334.626 266.36C336.674 267.811 339.703 268.536 343.714 268.536V271.224C341.751 271.139 338.893 271.053 335.138 270.968C331.383 270.797 327.458 270.712 323.362 270.712C319.949 270.712 316.493 270.797 312.994 270.968C309.495 271.053 306.85 271.139 305.058 271.224V268.536C308.045 268.536 310.135 267.896 311.33 266.616C312.61 265.336 313.25 262.904 313.25 259.32V219C313.25 215.16 312.653 212.344 311.458 210.552C310.349 208.675 308.215 207.736 305.058 207.736V205.048C307.789 205.304 310.434 205.432 312.994 205.432C316.578 205.432 319.906 205.304 322.978 205.048C326.135 204.707 329.037 204.237 331.682 203.64V215.544C332.706 213.24 334.071 211.149 335.778 209.272C337.485 207.395 339.447 205.944 341.666 204.92C343.885 203.811 346.359 203.256 349.09 203.256Z" fill="black"/>
<path d="M276.892 203.256C284.401 203.256 290.289 205.475 294.556 209.912C298.823 214.349 300.956 221.603 300.956 231.672H258.844L258.588 229.24H284.828C284.913 225.059 284.657 221.219 284.06 217.72C283.463 214.136 282.524 211.277 281.244 209.144C279.964 207.011 278.257 205.944 276.124 205.944C273.137 205.944 270.577 207.821 268.444 211.576C266.396 215.331 265.159 221.56 264.732 230.264L265.116 231.032C265.031 232.056 264.945 233.123 264.86 234.232C264.86 235.341 264.86 236.493 264.86 237.688C264.86 243.576 265.671 248.355 267.292 252.024C268.999 255.693 271.132 258.381 273.692 260.088C276.252 261.709 278.855 262.52 281.5 262.52C283.292 262.52 285.127 262.264 287.004 261.752C288.967 261.155 290.929 260.131 292.892 258.68C294.855 257.144 296.689 255.011 298.396 252.28L300.7 253.048C299.676 256.291 298.055 259.448 295.836 262.52C293.617 265.592 290.801 268.109 287.388 270.072C283.975 272.035 279.879 273.016 275.1 273.016C269.297 273.016 264.177 271.779 259.74 269.304C255.303 266.829 251.804 263.075 249.244 258.04C246.769 253.005 245.532 246.605 245.532 238.84C245.532 230.904 246.855 224.291 249.5 219C252.231 213.709 255.943 209.784 260.636 207.224C265.415 204.579 270.833 203.256 276.892 203.256Z" fill="black"/>
<path d="M227.912 184.056V205.048H243.016V207.608H227.912V259.32C227.912 261.88 228.381 263.715 229.32 264.824C230.259 265.848 231.667 266.36 233.544 266.36C235.08 266.36 236.616 265.805 238.152 264.696C239.688 263.501 241.053 261.496 242.248 258.68L244.424 259.832C243.059 263.672 240.968 266.829 238.152 269.304C235.421 271.779 231.667 273.016 226.888 273.016C224.072 273.016 221.597 272.632 219.464 271.864C217.331 271.181 215.539 270.115 214.088 268.664C212.211 266.787 210.973 264.483 210.376 261.752C209.779 258.936 209.48 255.309 209.48 250.872V207.608H198.728V205.048H209.48V188.152C213.064 188.152 216.349 187.853 219.336 187.256C222.408 186.573 225.267 185.507 227.912 184.056Z" fill="black"/>
<path d="M189.097 184.056V205.048H204.201V207.608H189.097V259.32C189.097 261.88 189.566 263.715 190.505 264.824C191.444 265.848 192.852 266.36 194.729 266.36C196.265 266.36 197.801 265.805 199.337 264.696C200.873 263.501 202.238 261.496 203.433 258.68L205.609 259.832C204.244 263.672 202.153 266.829 199.337 269.304C196.606 271.779 192.852 273.016 188.073 273.016C185.257 273.016 182.782 272.632 180.649 271.864C178.516 271.181 176.724 270.115 175.273 268.664C173.396 266.787 172.158 264.483 171.561 261.752C170.964 258.936 170.665 255.309 170.665 250.872V207.608H159.913V205.048H170.665V188.152C174.249 188.152 177.534 187.853 180.521 187.256C183.593 186.573 186.452 185.507 189.097 184.056Z" fill="black"/>
<path d="M151.792 203.64V257.272C151.792 261.112 152.389 263.971 153.584 265.848C154.779 267.64 156.912 268.536 159.984 268.536V271.224C157.339 270.968 154.693 270.84 152.048 270.84C148.464 270.84 145.136 270.968 142.064 271.224C138.992 271.48 136.091 271.949 133.36 272.632V261.112C131.312 265.379 128.453 268.451 124.784 270.328C121.2 272.12 117.189 273.016 112.752 273.016C109.168 273.016 106.267 272.547 104.048 271.608C101.829 270.669 100.08 269.475 98.8 268.024C97.3493 266.403 96.3253 264.269 95.728 261.624C95.1307 258.979 94.832 255.565 94.832 251.384V219C94.832 215.16 94.2347 212.344 93.04 210.552C91.9307 208.675 89.7973 207.736 86.64 207.736V205.048C89.3707 205.304 92.016 205.432 94.576 205.432C98.16 205.432 101.488 205.304 104.56 205.048C107.717 204.707 110.619 204.237 113.264 203.64V256.632C113.264 258.765 113.435 260.643 113.776 262.264C114.203 263.885 114.971 265.165 116.08 266.104C117.189 266.957 118.811 267.384 120.944 267.384C123.248 267.384 125.296 266.744 127.088 265.464C128.965 264.184 130.459 262.435 131.568 260.216C132.763 257.912 133.36 255.352 133.36 252.536V219C133.36 215.16 132.763 212.344 131.568 210.552C130.459 208.675 128.325 207.736 125.168 207.736V205.048C127.899 205.304 130.544 205.432 133.104 205.432C136.688 205.432 140.016 205.304 143.088 205.048C146.245 204.707 149.147 204.237 151.792 203.64Z" fill="black"/>
<path d="M5.888 180.6C8.10667 180.685 11.008 180.771 14.592 180.856C18.176 180.941 21.76 180.984 25.344 180.984C29.44 180.984 33.408 180.941 37.248 180.856C41.088 180.771 43.8187 180.728 45.44 180.728C56.0213 180.728 63.9147 182.605 69.12 186.36C74.4107 190.115 77.056 194.936 77.056 200.824C77.056 203.811 76.16 206.84 74.368 209.912C72.576 212.984 69.8027 215.715 66.048 218.104C62.2933 220.493 57.4293 222.243 51.456 223.352V223.608C59.4773 224.205 65.8347 225.656 70.528 227.96C75.2213 230.264 78.592 233.037 80.64 236.28C82.688 239.523 83.712 242.893 83.712 246.392C83.712 251.768 82.304 256.291 79.488 259.96C76.672 263.629 72.6187 266.445 67.328 268.408C62.0373 270.285 55.7227 271.224 48.384 271.224C46.336 271.224 43.392 271.181 39.552 271.096C35.712 270.925 31.0613 270.84 25.6 270.84C21.8453 270.84 18.176 270.883 14.592 270.968C11.008 270.968 8.10667 271.053 5.888 271.224V268.664C8.61867 268.493 10.6667 268.152 12.032 267.64C13.3973 267.128 14.2933 266.104 14.72 264.568C15.232 263.032 15.488 260.728 15.488 257.656V194.168C15.488 191.011 15.232 188.707 14.72 187.256C14.2933 185.72 13.3547 184.696 11.904 184.184C10.5387 183.587 8.53333 183.245 5.888 183.16V180.6ZM43.776 183.16C40.448 183.16 38.272 183.885 37.248 185.336C36.3093 186.787 35.84 189.731 35.84 194.168V257.656C35.84 260.643 36.0533 262.904 36.48 264.44C36.992 265.976 37.8453 267 39.04 267.512C40.32 268.024 42.1973 268.28 44.672 268.28C50.816 268.28 55.296 266.36 58.112 262.52C61.0133 258.595 62.464 253.048 62.464 245.88C62.464 239.309 60.8 234.232 57.472 230.648C54.2293 227.064 48.8107 225.272 41.216 225.272H30.336C30.336 225.272 30.336 224.931 30.336 224.248C30.336 223.48 30.336 223.096 30.336 223.096H41.344C45.3547 223.096 48.4267 222.157 50.56 220.28C52.6933 218.317 54.1867 215.757 55.04 212.6C55.8933 209.357 56.32 205.901 56.32 202.232C56.32 195.917 55.3387 191.181 53.376 188.024C51.4133 184.781 48.2133 183.16 43.776 183.16Z" fill="black"/>
<path d="M621.592 32.256C627.821 32.256 633.283 33.408 637.976 35.712C642.669 38.016 646.339 41.728 648.984 46.848C651.629 51.968 652.952 58.752 652.952 67.2C652.952 75.648 651.629 82.432 648.984 87.552C646.339 92.5867 642.669 96.256 637.976 98.56C633.283 100.864 627.821 102.016 621.592 102.016C615.533 102.016 610.115 100.864 605.336 98.56C600.643 96.256 596.931 92.5867 594.2 87.552C591.555 82.432 590.232 75.648 590.232 67.2C590.232 58.752 591.555 51.968 594.2 46.848C596.931 41.728 600.643 38.016 605.336 35.712C610.115 33.408 615.533 32.256 621.592 32.256ZM621.592 34.816C618.179 34.816 615.32 37.376 613.016 42.496C610.712 47.5306 609.56 55.7653 609.56 67.2C609.56 78.6346 610.712 86.8693 613.016 91.904C615.32 96.9386 618.179 99.456 621.592 99.456C625.091 99.456 627.949 96.9386 630.168 91.904C632.472 86.8693 633.624 78.6346 633.624 67.2C633.624 55.7653 632.472 47.5306 630.168 42.496C627.949 37.376 625.091 34.816 621.592 34.816Z" fill="black"/>
<path d="M572.612 13.056V34.048H587.716V36.608H572.612V88.32C572.612 90.88 573.081 92.7147 574.02 93.824C574.959 94.848 576.367 95.36 578.244 95.36C579.78 95.36 581.316 94.8053 582.852 93.696C584.388 92.5013 585.753 90.496 586.948 87.68L589.124 88.832C587.759 92.672 585.668 95.8293 582.852 98.304C580.121 100.779 576.367 102.016 571.588 102.016C568.772 102.016 566.297 101.632 564.164 100.864C562.031 100.181 560.239 99.1147 558.788 97.664C556.911 95.7867 555.673 93.4827 555.076 90.752C554.479 87.936 554.18 84.3093 554.18 79.872V36.608H543.428V34.048H554.18V17.152C557.764 17.152 561.049 16.8533 564.036 16.256C567.108 15.5733 569.967 14.5067 572.612 13.056Z" fill="black"/>
<path d="M491.897 32.256C499.406 32.256 505.294 34.4746 509.561 38.912C513.828 43.3493 515.961 50.6026 515.961 60.672H473.849L473.593 58.24H499.833C499.918 54.0586 499.662 50.2187 499.065 46.72C498.468 43.136 497.529 40.2773 496.249 38.144C494.969 36.0106 493.262 34.944 491.129 34.944C488.142 34.944 485.582 36.8213 483.449 40.576C481.401 44.3306 480.164 50.56 479.737 59.264L480.121 60.032C480.036 61.056 479.95 62.1226 479.865 63.232C479.865 64.3413 479.865 65.4933 479.865 66.688C479.865 72.576 480.676 77.3547 482.297 81.024C484.004 84.6933 486.137 87.3813 488.697 89.088C491.257 90.7093 493.86 91.52 496.505 91.52C498.297 91.52 500.132 91.264 502.009 90.752C503.972 90.1547 505.934 89.1307 507.897 87.68C509.86 86.144 511.694 84.0106 513.401 81.28L515.705 82.048C514.681 85.2906 513.06 88.448 510.841 91.52C508.622 94.592 505.806 97.1093 502.393 99.072C498.98 101.035 494.884 102.016 490.105 102.016C484.302 102.016 479.182 100.779 474.745 98.304C470.308 95.8293 466.809 92.0747 464.249 87.04C461.774 82.0053 460.537 75.6053 460.537 67.84C460.537 59.904 461.86 53.2907 464.505 48C467.236 42.7093 470.948 38.784 475.641 36.224C480.42 33.5786 485.838 32.256 491.897 32.256Z" fill="black"/>
<path d="M392.022 32.256C395.606 32.256 398.507 32.7253 400.726 33.664C402.945 34.5173 404.737 35.712 406.102 37.248C407.467 38.8693 408.449 41.0026 409.046 43.648C409.643 46.208 409.942 49.6213 409.942 53.888V88.32C409.942 91.904 410.497 94.336 411.606 95.616C412.715 96.896 414.635 97.536 417.366 97.536V100.224C415.83 100.139 413.483 100.053 410.326 99.968C407.254 99.7973 404.225 99.712 401.238 99.712C398.166 99.712 395.137 99.7973 392.15 99.968C389.163 100.053 386.902 100.139 385.366 100.224V97.536C387.67 97.536 389.249 96.896 390.102 95.616C391.041 94.336 391.51 91.904 391.51 88.32V48.512C391.51 46.3786 391.339 44.544 390.998 43.008C390.657 41.3866 389.974 40.1493 388.95 39.296C388.011 38.3573 386.561 37.888 384.598 37.888C382.379 37.888 380.331 38.528 378.454 39.808C376.577 41.088 375.041 42.88 373.846 45.184C372.737 47.4026 372.182 49.92 372.182 52.736V88.32C372.182 91.904 372.651 94.336 373.59 95.616C374.529 96.896 376.107 97.536 378.326 97.536V100.224C376.961 100.139 374.827 100.053 371.926 99.968C369.11 99.7973 366.209 99.712 363.222 99.712C359.979 99.712 356.651 99.7973 353.238 99.968C349.825 100.053 347.265 100.139 345.558 100.224V97.536C348.545 97.536 350.635 96.896 351.83 95.616C353.11 94.336 353.75 91.904 353.75 88.32V48C353.75 44.16 353.153 41.344 351.958 39.552C350.849 37.6746 348.715 36.736 345.558 36.736V34.048C348.289 34.304 350.934 34.432 353.494 34.432C357.078 34.432 360.406 34.304 363.478 34.048C366.635 33.7066 369.537 33.2373 372.182 32.64V44.16C374.23 39.8933 377.003 36.864 380.502 35.072C384.001 33.1946 387.841 32.256 392.022 32.256ZM430.55 32.256C434.134 32.256 437.035 32.7253 439.254 33.664C441.473 34.5173 443.265 35.712 444.63 37.248C445.995 38.8693 446.977 41.0026 447.574 43.648C448.171 46.208 448.47 49.6213 448.47 53.888V88.32C448.47 91.904 449.067 94.336 450.262 95.616C451.542 96.896 453.675 97.536 456.662 97.536V100.224C455.041 100.139 452.609 100.053 449.366 99.968C446.123 99.7973 442.923 99.712 439.766 99.712C436.694 99.712 433.665 99.7973 430.678 99.968C427.691 100.053 425.43 100.139 423.894 100.224V97.536C426.198 97.536 427.777 96.896 428.63 95.616C429.569 94.336 430.038 91.904 430.038 88.32V48.512C430.038 46.3786 429.825 44.544 429.398 43.008C429.057 41.3866 428.331 40.1493 427.222 39.296C426.198 38.3573 424.577 37.888 422.358 37.888C420.139 37.888 418.091 38.5706 416.214 39.936C414.337 41.3013 412.801 43.136 411.606 45.44C410.497 47.744 409.899 50.304 409.814 53.12L409.174 45.312C411.478 40.192 414.507 36.736 418.262 34.944C422.102 33.152 426.198 32.256 430.55 32.256Z" fill="black"/>
<path d="M308.767 32.256C314.996 32.256 320.458 33.408 325.151 35.712C329.844 38.016 333.514 41.728 336.159 46.848C338.804 51.968 340.127 58.752 340.127 67.2C340.127 75.648 338.804 82.432 336.159 87.552C333.514 92.5867 329.844 96.256 325.151 98.56C320.458 100.864 314.996 102.016 308.767 102.016C302.708 102.016 297.29 100.864 292.511 98.56C287.818 96.256 284.106 92.5867 281.375 87.552C278.73 82.432 277.407 75.648 277.407 67.2C277.407 58.752 278.73 51.968 281.375 46.848C284.106 41.728 287.818 38.016 292.511 35.712C297.29 33.408 302.708 32.256 308.767 32.256ZM308.767 34.816C305.354 34.816 302.495 37.376 300.191 42.496C297.887 47.5306 296.735 55.7653 296.735 67.2C296.735 78.6346 297.887 86.8693 300.191 91.904C302.495 96.9386 305.354 99.456 308.767 99.456C312.266 99.456 315.124 96.9386 317.343 91.904C319.647 86.8693 320.799 78.6346 320.799 67.2C320.799 55.7653 319.647 47.5306 317.343 42.496C315.124 37.376 312.266 34.816 308.767 34.816Z" fill="black"/>
<path d="M248.083 32.256C251.411 32.256 254.44 32.64 257.171 33.408C259.987 34.0906 262.291 34.9866 264.083 36.096C266.302 37.4613 268.008 39.168 269.203 41.216C270.483 43.1786 271.123 45.4826 271.123 48.128C271.123 51.1146 270.184 53.5893 268.307 55.552C266.43 57.4293 263.998 58.368 261.011 58.368C258.024 58.368 255.635 57.5146 253.843 55.808C252.051 54.1013 251.155 51.7973 251.155 48.896C251.155 46.1653 252.008 43.904 253.715 42.112C255.422 40.2347 257.384 38.9973 259.603 38.4C258.92 37.5466 257.896 36.8213 256.531 36.224C255.166 35.6266 253.63 35.328 251.923 35.328C249.278 35.328 246.931 36.096 244.883 37.632C242.92 39.168 241.256 41.3013 239.891 44.032C238.526 46.7626 237.459 49.9626 236.691 53.632C236.008 57.3013 235.667 61.312 235.667 65.664C235.667 72.2347 236.478 77.3973 238.099 81.152C239.806 84.9067 241.939 87.552 244.499 89.088C247.144 90.624 249.875 91.392 252.691 91.392C254.312 91.392 256.062 91.136 257.939 90.624C259.902 90.112 261.864 89.088 263.827 87.552C265.875 86.016 267.752 83.84 269.459 81.024L271.635 81.792C270.696 84.9493 269.16 88.1066 267.027 91.264C264.894 94.4213 262.12 97.024 258.707 99.072C255.294 101.035 251.112 102.016 246.163 102.016C240.616 102.016 235.582 100.821 231.059 98.432C226.622 95.9573 223.038 92.2027 220.307 87.168C217.662 82.048 216.339 75.4773 216.339 67.456C216.339 59.776 217.704 53.3333 220.435 48.128C223.251 42.8373 227.048 38.8693 231.827 36.224C236.606 33.5786 242.024 32.256 248.083 32.256Z" fill="black"/>
<path d="M204.975 0V88.32C204.975 91.904 205.572 94.336 206.767 95.616C208.047 96.896 210.18 97.536 213.167 97.536V100.224C211.546 100.139 209.114 100.053 205.871 99.968C202.628 99.7973 199.343 99.712 196.015 99.712C192.687 99.712 189.316 99.7973 185.903 99.968C182.575 100.053 180.058 100.139 178.351 100.224V97.536C181.338 97.536 183.428 96.896 184.623 95.616C185.903 94.336 186.543 91.904 186.543 88.32V15.36C186.543 11.52 185.946 8.704 184.751 6.912C183.642 5.03467 181.508 4.096 178.351 4.096V1.408C181.082 1.664 183.727 1.792 186.287 1.792C189.786 1.792 193.114 1.664 196.271 1.408C199.428 1.06667 202.33 0.597336 204.975 0Z" fill="black"/>
<path d="M149.947 32.256C157.456 32.256 163.344 34.4746 167.611 38.912C171.878 43.3493 174.011 50.6026 174.011 60.672H131.899L131.643 58.24H157.883C157.968 54.0586 157.712 50.2187 157.115 46.72C156.518 43.136 155.579 40.2773 154.299 38.144C153.019 36.0106 151.312 34.944 149.179 34.944C146.192 34.944 143.632 36.8213 141.499 40.576C139.451 44.3306 138.214 50.56 137.787 59.264L138.171 60.032C138.086 61.056 138 62.1226 137.915 63.232C137.915 64.3413 137.915 65.4933 137.915 66.688C137.915 72.576 138.726 77.3547 140.347 81.024C142.054 84.6933 144.187 87.3813 146.747 89.088C149.307 90.7093 151.91 91.52 154.555 91.52C156.347 91.52 158.182 91.264 160.059 90.752C162.022 90.1547 163.984 89.1307 165.947 87.68C167.91 86.144 169.744 84.0106 171.451 81.28L173.755 82.048C172.731 85.2906 171.11 88.448 168.891 91.52C166.672 94.592 163.856 97.1093 160.443 99.072C157.03 101.035 152.934 102.016 148.155 102.016C142.352 102.016 137.232 100.779 132.795 98.304C128.358 95.8293 124.859 92.0747 122.299 87.04C119.824 82.0053 118.587 75.6053 118.587 67.84C118.587 59.904 119.91 53.2907 122.555 48C125.286 42.7093 128.998 38.784 133.691 36.224C138.47 33.5786 143.888 32.256 149.947 32.256Z" fill="black"/>
<path d="M126.208 9.60001V12.16C124.331 12.8427 122.368 14.336 120.32 16.64C118.272 18.8587 116.48 22.4427 114.944 27.392L92.416 100.48C91.7333 100.395 91.008 100.352 90.24 100.352C89.472 100.352 88.704 100.352 87.936 100.352C87.168 100.352 86.4 100.352 85.632 100.352C84.864 100.352 84.1387 100.395 83.456 100.48L56.576 19.072C55.7227 16.4267 54.656 14.6347 53.376 13.696C52.1813 12.7573 50.9013 12.2453 49.536 12.16V9.60001C51.9253 9.68534 54.7413 9.77067 57.984 9.856C61.312 9.94134 64.5973 9.984 67.84 9.984C71.5947 9.984 75.0933 9.94134 78.336 9.856C81.664 9.77067 84.3093 9.68534 86.272 9.60001V12.16C83.712 12.2453 81.664 12.544 80.128 13.056C78.6773 13.568 77.824 14.5493 77.568 16C77.3973 17.4507 77.824 19.7547 78.848 22.912L97.024 78.464L94.08 83.712L108.544 37.76C110.592 31.2747 111.573 26.1973 111.488 22.528C111.403 18.8587 110.421 16.256 108.544 14.72C106.667 13.0987 103.979 12.2453 100.48 12.16V9.60001C103.381 9.68534 106.112 9.77067 108.672 9.856C111.232 9.94134 113.792 9.984 116.352 9.984C118.315 9.984 120.107 9.94134 121.728 9.856C123.435 9.77067 124.928 9.68534 126.208 9.60001ZM34.816 9.60001V12.16C33.1093 12.416 31.9147 13.056 31.232 14.08C30.5493 15.0187 30.2507 16.2987 30.336 17.92C30.5067 19.456 30.8907 21.12 31.488 22.912L51.072 79.744L47.616 84.352L64 36.48L65.792 39.936L45.696 100.48C45.0133 100.395 44.288 100.352 43.52 100.352C42.752 100.352 41.984 100.352 41.216 100.352C40.448 100.352 39.68 100.352 38.912 100.352C38.144 100.352 37.4187 100.395 36.736 100.48L8.064 20.352C6.95467 17.1947 5.632 15.0613 4.096 13.952C2.64533 12.8427 1.28 12.2453 0 12.16V9.60001C2.56 9.68534 5.58933 9.77067 9.088 9.856C12.5867 9.94134 15.9147 9.984 19.072 9.984C22.4853 9.984 25.5147 9.94134 28.16 9.856C30.8907 9.77067 33.1093 9.68534 34.816 9.60001Z" fill="black"/>
</svg>
